<svg version="1.2" xmlns="http://www.w3.org/2000/svg" viewBox="0 0 1536 1472" width="1536" height="1472"><style>.a{fill:none;stroke:#39374d;stroke-linecap:round;stroke-linejoin:round;stroke-width:128}</style><path class="a" d="m576 1280c35.3 0 64 28.7 64 64 0 35.3-28.7 64-64 64-35.3 0-64-28.7-64-64 0-35.3 28.7-64 64-64z"/><path class="a" d="m1280 1280c35.3 0 64 28.7 64 64 0 35.3-28.7 64-64 64-35.3 0-64-28.7-64-64 0-35.3 28.7-64 64-64z"/><path class="a" d="m384 384h1088l-102.4 537c-12.1 60.8-66 104.2-128 103h-622.1c-62 1.2-115.9-42.2-128-103l-171.5-857h-256"/></svg>