<svg version="1.2" xmlns="http://www.w3.org/2000/svg" viewBox="0 0 1280 1043" width="1280" height="1043"><style>.a{fill:#969696}</style><path class="a" d="m1152 260.9c0 11.5 0 23 0 33.9q0.1 6.8 0 13.5c-4.3 409.6-339.8 738.3-749.4 734-142.8 0.2-282.6-40.9-402.6-118.4 21.2 2.6 42.6 3.9 64 3.9 117.5-0.4 231.5-40 323.8-112.7-112.1-2.1-210.5-75.1-245.1-181.7 16.3 2.7 32.8 4.2 49.3 4.4 23.9-0.2 47.6-3.9 70.4-10.8-122.3-24.4-210.6-131.4-211.2-256v-3.2c36.5 20.3 77.3 31.5 119 32.6-72.9-48.7-116.6-130.6-116.4-218.2-0.1-46.5 12.1-92.2 35.2-132.5 133.1 164.1 329.7 263.9 540.8 274.5-22.3-92.5 7.2-189.8 77.2-254.3 106.5-98.3 272.5-91.6 370.8 15 58.9-11.6 115.4-33.3 167-64-19.8 60.8-60.9 112.4-115.8 145.3 52-6.3 102.9-20.1 151-41-34.5 52.3-77.8 98.2-128 135.7z"/></svg>