<svg version="1.2" xmlns="http://www.w3.org/2000/svg" viewBox="0 0 1280 1280" width="1280" height="1280"><style>.a{fill:#969696}</style><path fill-rule="evenodd" class="a" d="m1280 640c0 353.5-286.5 640-640 640-353.5 0-640-286.5-640-640 0-353.5 286.5-640 640-640 353.5 0 640 286.5 640 640zm-780.2-492.2c68.7 81.9 130.1 169.4 183.7 261.8 107.7-35.4 211.3-82.2 309.1-139.5-94.7-91.2-221.1-142.2-352.6-142.1-47.4 0-94.6 6.7-140.2 19.8zm-350 347.6h23c129.4-0.3 258.4-16.2 384-47.4-52.6-87.2-112.8-169.7-179.8-246.4-109.9 66-190.9 170.9-227.2 293.8zm234.2 352.6l19.2-15.4c81.9-66.9 174.8-119 274.6-154.2-18.6-41.6-37.8-81.9-58.3-121-145.8 41.2-296.5 62.7-448 64h-43.5c0 5.8 0 12.2 0 18.6-0.9 125.2 44.7 246.3 128 339.8 39.6-46.8 82.4-90.8 128-131.8zm435.8 272.6c-21.1-108.9-51.1-215.9-89.6-320-93.5 32.4-180.2 81.6-256 145.3l-20.4 17.3c-35.4 31.6-68.7 65.4-99.9 101.1 84.4 57.4 184.1 87.9 286.1 87.7 61.3 0.3 122.2-10.3 179.8-31.4zm306-315.5c-63.6-22.2-130.4-33.7-197.8-33.9h-44.2c-2.5-0.6-5.1-0.6-7.6 0h-21.8c33.6 93.2 61 188.6 81.9 285.4 88.2-61.6 154.5-149.7 189.5-251.5zm26.2-132.5q0-16.3 0-32.6c0.8-97.2-26-192.7-77.4-275.2-103.7 62.8-213.8 114.2-328.4 153.6 21.2 43.5 40.4 85.1 58.9 128h6.4c17.2-3.2 34.5-5.3 51.9-6.4 8.2-1 16.6-1 24.9 0 12.8 0 26.3 0 39.7 0 75.9-0.8 151.5 10.3 224 32.6z"/></svg>