<svg version="1.2" xmlns="http://www.w3.org/2000/svg" viewBox="0 0 1280 1280" width="1280" height="1280"><style>.a{fill:#969696}</style><path fill-rule="evenodd" class="a" d="m1280 640c0 174.1-3.8 195.8-3.8 263.7-1.3 53.1-11.2 105.6-29.5 155.5-16.1 42.8-41.4 81.4-74.2 113.3-31.7 32.8-70.4 58-113.3 73.6-49.8 18.8-102.3 29-155.5 30.1-67.9 3.8-89.6 3.8-263.7 3.8-174.1 0-195.8 0-263.7-3.8-53.2-1.1-105.8-11.3-155.5-30.1-42.8-15.8-81.5-41-113.3-73.6-32.8-31.7-58-70.4-73.6-113.3-18.8-49.8-29-102.3-30.1-155.5-3.8-67.9-3.8-89.6-3.8-263.7 0-174.1 0-195.8 3.8-263.7 1.1-53.2 11.3-105.8 30.1-155.5 15.6-42.9 40.8-81.6 73.6-113.3 31.8-32.6 70.5-57.8 113.3-73.6 49.7-18.8 102.3-29 155.5-30.1 67.9-3.8 89.6-3.8 263.7-3.8 174.1 0 195.8 0 263.7 3.8 53.2 1.1 105.8 11.3 155.5 30.1 42.9 15.6 81.6 40.8 113.3 73.6 32.6 32 57.9 70.6 74.2 113.3 18.3 49.9 28.2 102.4 29.5 155.5 3.8 67.9 3.8 89.6 3.8 263.7zm-115.2 0c0-168.3-0.6-192-3.8-256-0.2-41.5-7.6-82.6-21.8-121.6-10.6-26.7-27-50.7-48-70.4-21-22.9-47.1-40.4-76.2-51.2-38.1-13.9-78.4-21.3-119-21.8-64-3.8-87.7-3.8-256-3.8-168.3 0-192 3.8-256 3.8-41.5 0.4-82.6 7.7-121.6 21.8-26.9 11.7-51 29.2-70.4 51.2-22 19.3-39.3 43.4-50.6 70.4-14.5 38.9-22.1 80.1-22.4 121.6-3.8 64-3.8 87.7-3.8 256 0 168.3 3.8 192 3.8 256 1.3 41.7 10 82.9 25.6 121.6 9.9 27.9 26.2 53 47.4 73.6 19.9 20.7 43.9 37 70.4 48 40 13.5 82 20 124.2 19.2 64 3.8 87.6 3.8 256 3.8 168.3 0 192-0.6 256-3.8 40.6-0.5 80.8-7.8 119-21.8 27.7-10.4 52.8-26.8 73.6-48 21.4-20.5 37.8-45.7 48-73.6 13.9-38.1 21.3-78.4 21.8-119 3.2-64 3.8-87.7 3.8-256zm-106.2-341.8c0 42.5-34.4 76.8-76.8 76.8-42.5 0-76.8-34.3-76.8-76.8 0-42.4 34.3-76.8 76.8-76.8 42.4 0 76.8 34.4 76.8 76.8zm-416.7 13.5c181 0.3 327.4 147.3 327.1 328.3 0 181.1-146.6 328-327.7 328.3-181.3 0.4-328.6-146.3-329-327.7-0.3-181.3 146.4-328.6 327.7-328.9q1 0 1.9 0zm211.2 328.3c0-117.7-95.4-213.1-213.1-213.1-117.7 0-213.1 95.4-213.1 213.1 0 117.7 95.4 213.1 213.1 213.1 117.7 0 213.1-95.4 213.1-213.1z"/></svg>