<svg version="1.2" xmlns="http://www.w3.org/2000/svg" viewBox="0 0 828 212" width="828" height="212"><defs><linearGradient id="P" gradientUnits="userSpaceOnUse"/><linearGradient id="g1" x1="24.7" y1=".5" x2="128.9" y2=".5" href="#P"><stop offset="0" stop-color="#0b0d0f"/><stop offset=".5" stop-color="#24292c"/><stop offset="1" stop-color="#5b6162"/></linearGradient><linearGradient id="g2" x1="5.1" y1="1.7" x2="106.5" y2="1.7" href="#P"><stop offset="0" stop-color="#0b0d0f"/><stop offset=".5" stop-color="#24292c"/><stop offset="1" stop-color="#5b6162"/></linearGradient><linearGradient id="g3" x1="44.3" y1="6.1" x2="141.7" y2="6.1" href="#P"><stop offset="0" stop-color="#0b0d0f"/><stop offset=".5" stop-color="#24292c"/><stop offset="1" stop-color="#5b6162"/></linearGradient><linearGradient id="g4" x1="13.5" y1="200.9" x2="219" y2="200.9" href="#P"><stop stop-color="#5b6162"/><stop offset=".5" stop-color="#24292c"/><stop offset="1" stop-color="#0b0d0f"/></linearGradient><linearGradient id="g5" x1=".7" y1="161.5" x2="231.8" y2="161.5" href="#P"><stop stop-color="#5b6162"/><stop offset=".5" stop-color="#24292c"/><stop offset="1" stop-color="#0b0d0f"/></linearGradient><linearGradient id="g6" x1="137.7" y1="15" x2="227.4" y2="15" href="#P"><stop offset="0" stop-color="#0b0d0f"/><stop offset=".5" stop-color="#24292c"/><stop offset="1" stop-color="#5b6162"/></linearGradient><linearGradient id="g7" x1="127.9" y1="31.6" x2="207.8" y2="31.6" href="#P"><stop offset="0" stop-color="#0b0d0f"/><stop offset=".5" stop-color="#24292c"/><stop offset="1" stop-color="#5b6162"/></linearGradient><linearGradient id="g8" x1="118.1" y1="48.6" x2="188.2" y2="48.6" href="#P"><stop offset="0" stop-color="#0b0d0f"/><stop offset=".5" stop-color="#24292c"/><stop offset="1" stop-color="#5b6162"/></linearGradient><linearGradient id="g9" x1="2.2" y1="182.6" x2="230.3" y2="182.6" href="#P"><stop stop-color="#5b6162"/><stop offset=".5" stop-color="#24292c"/><stop offset="1" stop-color="#0b0d0f"/></linearGradient><linearGradient id="g10" x1="593.4" y1="76.4" x2="649.2" y2="76.4" href="#P"><stop stop-color="#0b0d0f"/><stop offset="1" stop-color="#424648"/></linearGradient><linearGradient id="g11" x1="523.4" y1="94.1" x2="467.6" y2="94.1" href="#P"><stop stop-color="#0b0d0f"/><stop offset="1" stop-color="#424648"/></linearGradient></defs><style>.a{fill:url(#g1)}.b{fill:url(#g2)}.c{fill:url(#g3)}.d{fill:url(#g4)}.e{fill:url(#g5)}.f{fill:url(#g6)}.g{fill:url(#g7)}.h{fill:url(#g8)}.i{fill:url(#g9)}.j{fill:#1a1a1a}.k{fill:url(#g10)}.l{fill:url(#g11)}</style><path class="a" d="m80.8 56.5l31.1-53.8c0 0 0.1-0.1 0.2-0.3 0.2-0.4 0.8-1 1.7-1.4 0.9-0.4 1.5-0.5 1.9-0.5q0.1 0 0.2 0h0.3q3.8 0 7.5 0.7c3.1 0.5 5.2 1.6 5.2 1.6 0 0-2.4-0.5-4.8 1-1.1 0.7-1.8 1.4-2.2 1.9q0 0.1 0 0.1l-0.4 0.6q0 0.1 0 0.1 0 0 0 0 0 0 0 0l-34.4 59.5-52.2 90.5c-0.2 0.5-0.5 1.5 0 2.3 0.7 1.1 1.5 1.3 2.2 1.3h-4.3-3.1c-1.4-0.1-3.2-0.4-4.5-2.8-0.9-1.7-0.4-3.5-0.1-4.3q0 0 0 0z"/><path class="b" d="m5.6 157.3c-0.9-1.8-0.4-3.5 0-4.3q0 0 0-0.1l76.2-131.9q0.3-0.5 0.6-1.1c4.6-7.8 11.8-13.9 20.5-17.1q0 0 0 0c0 0 1.8-0.7 3.6-1.1 0 0-1 0.2-1.8 0.8-0.6 0.5-1 1-1.2 1.3q-0.1 0.1-0.1 0.1 0 0 0 0l-25.5 44.1-62.7 108.6q0 0 0 0c-0.1 0.5-0.4 1.5 0.1 2.2 0.7 1.1 1.5 1.3 2.3 1.3h-4.4-3c-1.5-0.1-3.3-0.4-4.6-2.8z"/><path class="c" d="m131.3 6.5c3.2-1.1 6.1 0.2 6.4 0.4q0 0 0 0 0 0 0 0 1.1 0.7 2.2 1.6 0 0 0.1 0h-0.1l1.8 1.5c0 0-0.9-0.6-2-0.2-0.6 0.3-0.9 0.7-1 0.8q0 0 0 0.1-0.1 0-0.1 0l-37.5 65.2-46.6 80.5c-0.1 0.4-0.6 1.5 0 2.4 0.7 1.1 1.5 1.3 2.3 1.3h-4.4-3.1c-1.4-0.1-3.2-0.4-4.5-2.8-1-1.8-0.3-3.6 0-4.4q0 0 0 0l47.5-82.2 35.3-61.2q0 0 0 0v-0.1q0.1 0 0.1 0c0.3-0.5 1.4-2 3.6-2.9z"/><path class="d" d="m13.5 200.9h205.5c-7 6.4-16.2 10.2-26.4 10.2h-152.7c-10.2 0-19.4-3.8-26.4-10.2z"/><path class="e" d="m231.8 171.9q0 0.3 0 0.5c0 0-0.1 1.7-1.4 3.2-1.4 1.5-3.7 1.6-3.7 1.6h-220.9c0 0-2.3-0.1-3.7-1.6-1.2-1.3-1.4-2.8-1.4-3.1q0 0 0 0 0-0.3 0-0.6 0-2.1 0.2-4.1l0.5-5.6 0.1-0.7c0 0-0.1 0.3 0 0.8 0.1 0.8 0.4 2.1 1.4 3.1 1.2 1.2 2.6 1.5 3.1 1.6h220.5c0.5-0.1 1.8-0.4 3.1-1.6 1-1 1.3-2.3 1.4-3.1 0-0.5 0-0.8 0-0.8l0.1 0.7 0.5 5.5v0.1q0.2 2 0.2 4.1z"/><path class="f" d="m143.3 16.3l-0.1 0.1c0.1-0.1 0.7-1.3 2-1.4 1.3 0 2.1 0.8 2.2 1q0.1 0 0.1 0 1.7 2.3 3.1 4.9v-0.1l76.1 131.7q0 0.1 0 0.1v0.1q0.1 0 0.1 0.1c0.3 0.6 1.1 2.5 0 4.5-1.3 2.4-3.1 2.7-4.5 2.8h-3-4.4c0.8 0 1.6-0.2 2.3-1.3 0.5-0.8 0.1-1.9 0-2.3q0 0 0-0.1l-62.6-108.4-12.5-21.7q0 0-0.1 0 0 0 0 0 0 0 0 0l-0.1-0.1c-0.2-0.4-1-1.4-2.3-1.3-1.4 0.1-1.9 1.1-1.9 1.1l2.1-3.7z"/><path class="g" d="m197.6 158.8c0.6-0.9 0.1-2.2 0-2.4l-52.3-90.4-13-22.7q0 0 0 0c0 0-0.8-1.6-2.5-1.5-1.4 0.1-1.9 1.1-1.9 1.1l2.1-3.6v-0.1l3.7-6.4c0.3-0.4 0.9-1.1 1.9-1.2 1.3-0.1 2.2 0.9 2.3 1l13.8 23.9 55.6 96.4q0 0 0 0c0.4 0.8 1 2.6 0 4.4-1.3 2.4-3.1 2.7-4.5 2.8h-3.1-4.4c0.8 0 1.6-0.2 2.3-1.3z"/><path class="h" d="m178 158.8c0.6-1.1-0.1-2.5-0.1-2.5l-46.5-80.4-8.9-15.6q0 0-0.1 0 0 0 0 0v-0.1c-0.2-0.3-0.9-1.4-2.4-1.4-1.4 0.1-1.9 1.2-1.9 1.2l2.1-3.7 3.6-6.3q0-0.1 0.1-0.2c0.3-0.4 0.9-1.1 1.9-1.2 1.2-0.1 1.9 0.6 2.2 0.9l12.2 21.2 47.3 81.8q0 0 0 0.2c0.3 0.5 1.3 2.5 0.1 4.6-1.3 2.4-3 2.7-4.5 2.8h-3-4.4c0.8 0 1.6-0.2 2.3-1.3z"/><path class="i" d="m230.3 182.6c0 0-0.1 0.5-0.4 1.4q-0.1 0.2-0.1 0.4-0.1 0.1-0.1 0.2 0 0.1 0 0.1-0.1 0.2-0.1 0.3-1.4 3.7-3.4 7.1 0 0 0 0c-0.4 0.6-1.2 1.3-2.1 1.6-0.9 0.4-1.7 0.4-2.1 0.5h-211.5c-0.4-0.1-1.2-0.1-2.1-0.5-0.9-0.3-1.6-1-2.1-1.6q-2-3.3-3.4-7.1 0 0 0 0-0.2-0.5-0.3-1 0 0 0 0c-0.3-0.9-0.4-1.4-0.4-1.4 0 0 0.5 0.6 1.6 1 0.6 0.2 1.1 0.3 1.4 0.4h222.1c0.3-0.1 0.8-0.2 1.4-0.4 1.1-0.4 1.6-1 1.6-1z"/><path fill-rule="evenodd" class="j" d="m298.1 162.3h-11.3l-2.3 4.4h-5.3l10.6-20 0.6-1.1h4.1l0.6 1.1 10.6 20h-5.3zm-2.2-4.1l-3.4-6.5-3.5 6.5z"/><path class="j" d="m311.8 149.6c-0.2 0-0.5 0.3-0.5 0.5v11.9c0 0.3 0.3 0.5 0.5 0.5h14.6v4.2h-14.2c-4.3 0-6.2-2-6.2-6.3v-8.6c0-4.3 1.9-6.2 6.2-6.2h14.2v4z"/><path fill-rule="evenodd" class="j" d="m346 162.3h-11.2l-2.3 4.4h-5.4l10.7-20 0.6-1.1h4.1l0.6 1.1 10.6 20h-5.3zm-2.2-4.1l-3.5-6.5-3.4 6.5z"/><path fill-rule="evenodd" class="j" d="m380.6 151.8v8.6c0 4.3-1.9 6.3-6.2 6.3h-19.5v-21.1h19.5c4.3 0 6.2 1.9 6.2 6.2zm-5.3-1.7c0-0.2-0.3-0.5-0.5-0.5h-14.6v12.9h14.6c0.2 0 0.5-0.2 0.5-0.5z"/><path class="j" d="m389 150.7v3.4h13v4.1h-13v3.8c0 0.3 0.2 0.5 0.5 0.5h14.5v4.2h-14.1c-4.3 0-6.2-2-6.2-6.3v-8.6c0-4.3 1.9-6.2 6.2-6.2h14.1v4h-13.9c-0.6 0-1.1 0.5-1.1 1.1z"/><path class="j" d="m432.3 145.6v21.1h-5.3v-12.1l-5.2 10.9-0.6 1.2h-3.5l-0.5-1.2-5.2-10.9v12.1h-5.4v-21.1h5.6l7.3 15.1 7.2-15.1z"/><path class="j" d="m449.4 159.9v6.8h-5.3v-6.8l-10.7-14.3h6.5l6.9 9.4 6.9-9.4h6.4z"/><path class="j" d="m383 119.5v12.9h-86.1-10.2c-5.6 0-10.2-4.5-10.2-10.2v-83.6h15.3c2.8 0 5.1 2.2 5.1 5v71.2h81.4c2.6 0 4.7 2.1 4.7 4.7z"/><path class="j" d="m793.8 119.5v12.9h-86.1-10.2c-5.6 0-10.2-4.5-10.2-10.2v-83.6h15.3c2.8 0 5.1 2.2 5.1 5v71.2h81.4c2.6 0 4.7 2.1 4.7 4.7z"/><path class="j" d="m419.9 43.6v88.8h-10.2c-5.6 0-10.2-4.5-10.2-10.2v-83.6h15.4c2.8 0 5 2.2 5 5z"/><path class="j" d="m583.2 56.3v58.5h81.3c2.8 0 5.1 2.2 5.1 5.1v12.5h-86.4-0.8-9.4c-5.6 0-10.2-4.5-10.2-10.2v-83.6h15.3q0.4 0 0.8 0h85.8c2.7 0 4.9 2.2 4.9 4.9v12.8z"/><path class="k" d="m649.2 94.1h-55.8v-17.7h46.3c5.2 0 9.5 4.3 9.5 9.5z"/><path fill-rule="evenodd" class="j" d="m537.6 85.4c5.3 5.9 8.1 12 8.1 19.4 0 11.7-9.6 27.6-28.7 27.6h-59.7-10.1c-5.7 0-10.2-4.5-10.2-10.2v-83.6h15.3q0 0 0 0h64.7c19.1 0 28.7 15.9 28.7 27.6 0 7.4-2.8 13.5-8.1 19.2zm-57.4 8.7v-17.7h36.8c6.3 0 10.3-5 10.3-10.2 0-5.2-4-9.8-10.3-9.8h-59.7v58.2h59.7c6.3 0 10.3-5.1 10.3-10.3 0-5.2-4-10.1-10.3-10.1z"/><path class="l" d="m467.6 85.9c0-5.2 4.3-9.5 9.5-9.5h46.3v17.7h-55.8z"/><path fill-rule="evenodd" class="j" d="m818.7 132.4c-4.8 0-8.7-3.9-8.7-8.7 0-4.9 3.9-8.8 8.7-8.8 4.9 0 8.8 3.9 8.8 8.8 0 4.8-3.9 8.7-8.8 8.7zm0-16c-4 0-7.3 3.2-7.3 7.3 0 4 3.3 7.3 7.3 7.3 4.1 0 7.3-3.3 7.3-7.3 0-4.1-3.2-7.3-7.3-7.3z"/><path fill-rule="evenodd" class="j" d="m822.5 122.3q0 2.1-1.8 2.7l2.2 3h-1.8l-2-2.8h-1.9v2.8h-1.4v-8.4h3.1q1.9 0 2.8 0.7 0.8 0.6 0.8 2zm-1.9 1.2q0.5-0.3 0.5-1.2 0-0.8-0.5-1.1-0.4-0.3-1.6-0.3h-1.8v3h1.8q1.2 0 1.6-0.4z"/></svg>